<svg viewBox="0 0 32 14.2222" xmlns="http://www.w3.org/2000/svg" xmlns:xlink="http://www.w3.org/1999/xlink" width="32.000000" height="14.222168" fill="none" customFrame="#000000">
	<path id="Vector" d="M2.37037 1.4686C2.37037 0.657514 1.83974 0 1.18519 0C0.530626 0 0 0.657514 0 1.4686L0 21.0499C0 21.861 0.530626 22.5185 1.18519 22.5185C1.83974 22.5185 2.37037 21.861 2.37037 21.0499L2.37037 1.4686Z" fill="rgb(128,128,128)" fill-rule="nonzero" transform="matrix(1.19249e-08,-1,1,1.19249e-08,9.48145,2.37036)" />
	<path id="Vector" d="M1.18518 0C1.83974 0 2.37037 0.614009 2.37037 1.37143L2.37037 30.6286C2.37037 31.386 1.83974 32 1.18519 32C0.530627 32 1.50704e-06 31.386 1.50704e-06 30.6286L0 1.37143C0 0.61401 0.530625 0 1.18518 0Z" fill="rgb(0,0,0)" fill-rule="evenodd" transform="matrix(1.19249e-08,-1,1,1.19249e-08,0,8.29614)" />
	<path id="Vector" d="M2.37037 1.4686C2.37037 0.657514 1.83975 0 1.18519 0C0.530625 0 0 0.657514 0 1.4686L0 21.0499C0 21.861 0.530625 22.5185 1.18519 22.5185C1.83975 22.5185 2.37037 21.861 2.37037 21.0499L2.37037 1.4686Z" fill="rgb(128,128,128)" fill-rule="nonzero" transform="matrix(1.19249e-08,-1,1,1.19249e-08,9.48145,14.2222)" />
</svg>
