<svg viewBox="0 0 65 65" xmlns="http://www.w3.org/2000/svg" xmlns:xlink="http://www.w3.org/1999/xlink" width="65.000000" height="65.000000" fill="none">
	<rect id="dashboard (1) 1" width="65.000000" height="65.000000" x="0.000000" y="0.000000" fill="rgb(255,255,255)" fill-opacity="0" />
	<path id="path1240" d="M9.40446 0C4.25752 0 0 4.25752 0 9.40446L0 19.5007L65 19.5007L65 9.40446C65 4.25752 60.7425 0 55.5955 0L9.40446 0ZM43.3164 6.50454L51.9975 6.50454C53.7919 6.51154 55.2408 7.97179 55.2338 9.76617C55.2268 11.5507 53.782 12.9955 51.9975 13.0025L43.3164 13.0025C41.5319 12.9955 40.0871 11.5507 40.0801 9.76617C40.0731 7.97179 41.522 6.51154 43.3164 6.50454ZM8.6572e-15 25.9988L8.6572e-15 55.5955C8.6572e-15 60.7425 4.25752 65 9.40446 65L55.5955 65C60.7425 65 65 60.7425 65 55.5955L65 25.9988L8.6572e-15 25.9988ZM32.4968 33.5819C34.2912 33.5889 35.7402 35.0492 35.7332 36.8436L35.7332 51.9973C35.7297 53.7842 34.2837 55.2331 32.4968 55.2401C30.7024 55.2471 29.2422 53.7981 29.235 52.0037C29.235 52.0016 29.235 51.9994 29.235 51.9973L29.235 36.8436C29.228 35.0492 30.677 33.5889 32.4714 33.5818C32.4799 33.5819 32.4884 33.5819 32.4968 33.5819ZM19.5007 40.0801C21.2951 40.0731 22.7555 41.522 22.7625 43.3164L22.7625 43.3419L22.7625 51.9975C22.759 53.7919 21.3015 55.2437 19.5071 55.2402C19.5049 55.2402 19.5028 55.2402 19.5007 55.2402C17.7137 55.2332 16.2678 53.7845 16.2643 51.9975L16.2643 43.3419C16.2573 41.5475 17.7063 40.0871 19.5007 40.0801ZM45.4993 40.0801C47.2937 40.0871 48.7427 41.5473 48.7357 43.3417L48.7357 51.9973C48.7322 53.7842 47.2863 55.2331 45.4993 55.2401C43.7049 55.2471 42.2447 53.7981 42.2375 52.0037C42.2375 52.0016 42.2375 51.9994 42.2375 51.9973L42.2375 43.3419C42.2305 41.5475 43.6795 40.0872 45.4739 40.0801L45.4993 40.0801Z" fill="rgb(28,94,32)" fill-rule="nonzero" />
</svg>
