<svg viewBox="0 0 65 64.9997" xmlns="http://www.w3.org/2000/svg" xmlns:xlink="http://www.w3.org/1999/xlink" width="65.000000" height="64.999695" fill="none" customFrame="#000000">
	<g id="Layer 2">
		<path id="Vector" d="M65 18.5714L65 11.6071C65 9.7601 64.2663 7.98871 62.9602 6.68265C61.6542 5.37659 59.8828 4.64286 58.0357 4.64286L48.75 4.64286L48.75 2.32143C48.75 1.70575 48.5054 1.11528 48.0701 0.679931C47.6347 0.244578 47.0443 1.54638e-15 46.4286 0C45.8129 1.54638e-15 45.2224 0.244578 44.7871 0.679931C44.3517 1.11528 44.1071 1.70575 44.1071 2.32143L44.1071 4.64286L20.8929 4.64286L20.8929 2.32143C20.8929 1.70575 20.6483 1.11528 20.2129 0.679931C19.7776 0.244578 19.1871 1.54638e-15 18.5714 0C17.9557 1.54638e-15 17.3653 0.244578 16.9299 0.679931C16.4946 1.11528 16.25 1.70575 16.25 2.32143L16.25 4.64286L6.96429 4.64286C5.11724 4.64286 3.34585 5.37659 2.03979 6.68265C0.733735 7.98871 2.06184e-15 9.7601 0 11.6071L0 18.5714L65 18.5714Z" fill="rgb(28,94,32)" fill-rule="nonzero" />
		<path id="Vector" d="M0 23.2139L0 58.0353C2.06184e-15 59.8823 0.733735 61.6537 2.03979 62.9598C3.34585 64.2658 5.11724 64.9996 6.96429 64.9996L58.0357 64.9996C59.8828 64.9996 61.6542 64.2658 62.9602 62.9598C64.2663 61.6537 65 59.8823 65 58.0353L65 23.2139L0 23.2139ZM45.6161 36.583L29.3661 50.5115C28.9219 50.8913 28.3508 51.0896 27.7669 51.0668C27.183 51.044 26.6291 50.8018 26.2159 50.3885L19.2516 43.4242C18.8287 42.9864 18.5948 42.4 18.6 41.7913C18.6053 41.1827 18.8495 40.6004 19.2799 40.17C19.7103 39.7396 20.2925 39.4954 20.9012 39.4902C21.5099 39.4849 22.0963 39.7189 22.5341 40.1417L27.9802 45.5878L42.6052 33.0521C42.8354 32.8446 43.1047 32.6853 43.3974 32.5836C43.6901 32.4819 44.0002 32.4398 44.3095 32.4599C44.6187 32.4799 44.9208 32.5616 45.1979 32.7003C45.4751 32.8389 45.7216 33.0316 45.9231 33.267C46.1246 33.5024 46.2769 33.7758 46.3711 34.071C46.4652 34.3663 46.4993 34.6773 46.4714 34.9859C46.4434 35.2946 46.3539 35.5944 46.2082 35.8679C46.0625 36.1414 45.8636 36.383 45.623 36.5783L45.6161 36.583Z" fill="rgb(28,94,32)" fill-rule="nonzero" />
	</g>
</svg>
