<svg viewBox="0 0 64.8635 65.0001" xmlns="http://www.w3.org/2000/svg" xmlns:xlink="http://www.w3.org/1999/xlink" width="64.863525" height="65.000122" fill="none" customFrame="#000000">
	<g id="Group">
		<path id="Vector" d="M63.1626 47.7034L54.0917 38.6325C50.8521 35.3929 45.3447 36.6889 44.0489 40.9002C43.077 43.816 39.8373 45.4358 36.9217 44.7878C30.4424 43.168 21.6955 34.745 20.0756 27.9417C19.1038 25.026 21.0475 21.7863 23.9632 20.8146C28.1747 19.5187 29.4705 14.0114 26.2309 10.7717L17.16 1.7008C14.5683 -0.566934 10.6807 -0.566934 8.413 1.7008L2.25772 7.85609C-3.89757 14.3353 2.90564 31.5053 18.1319 46.7316C33.3581 61.9578 50.5281 69.0851 57.0073 62.6057L63.1626 56.4504C65.4305 53.8587 65.4305 49.9712 63.1626 47.7034Z" fill="rgb(28,94,32)" fill-rule="nonzero" />
	</g>
</svg>
