<svg viewBox="0 0 50 50" xmlns="http://www.w3.org/2000/svg" xmlns:xlink="http://www.w3.org/1999/xlink" width="50.000000" height="50.000000" fill="none">
	<rect id="recovery 1" width="50.000000" height="50.000000" x="0.000000" y="0.000000" fill="rgb(255,255,255)" fill-opacity="0" />
	<g id="Group">
		<path id="Vector" d="M21.7492 11.1599C21.795 11.697 21.7514 12.4076 21.7514 12.9646L27.894 8.43535L21.7534 3.90771L21.7534 5.94082C21.7534 6.0648 21.709 6.18468 21.6282 6.27872C21.5474 6.37276 21.4356 6.43474 21.313 6.45342C17.9075 7.1291 14.7545 8.73114 12.2008 11.0832C9.64708 13.4353 7.79172 16.4463 6.83888 19.7848C5.88604 23.1234 5.87265 26.66 6.80018 30.0057C7.7277 33.3513 9.56019 36.3763 12.096 38.7477L15.405 36.2139C13.3619 34.4703 11.8324 32.203 10.9808 29.6557C10.1292 27.1083 9.98763 24.3771 10.5713 21.7553C11.155 19.1336 12.4419 16.7204 14.2938 14.7749C16.1457 12.8294 18.4926 11.4252 21.0824 10.7131C21.1559 10.6905 21.2335 10.6846 21.3096 10.6957C21.3857 10.7069 21.4583 10.7349 21.5222 10.7777C21.5861 10.8205 21.6396 10.8771 21.6789 10.9432C21.7181 11.0093 21.7422 11.0833 21.7492 11.1599Z" fill="rgb(255,255,255)" fill-rule="evenodd" />
		<path id="Vector" d="M28.95 39.2175C28.8715 39.2473 28.7869 39.2575 28.7036 39.2475C28.6202 39.2374 28.5406 39.2072 28.4714 39.1596C28.4023 39.1119 28.3457 39.0482 28.3066 38.9739C28.2675 38.8996 28.247 38.817 28.2469 38.733L28.2469 37.0355L22.1064 41.5632L28.249 46.0924L28.249 44.0383C28.2393 43.9118 28.2765 43.7861 28.3534 43.6851C28.4303 43.5842 28.5416 43.515 28.6661 43.4907C32.0704 42.8198 35.2239 41.2232 37.7797 38.8764C40.3355 36.5296 42.1948 33.5236 43.1531 30.1887C44.1114 26.8539 44.1316 23.3193 43.2116 19.9737C42.2915 16.6281 40.4668 13.601 37.938 11.2251L34.633 13.7559C36.6651 15.5018 38.1846 17.7671 39.0292 20.3096C39.8737 22.8521 40.0115 25.5763 39.4279 28.1911C38.8443 30.8059 37.5612 33.213 35.7157 35.1551C33.8702 37.0972 31.5316 38.5013 28.95 39.2175Z" fill="rgb(255,255,255)" fill-rule="evenodd" />
		<path id="Vector" d="M30.9435 19.0556C29.5684 17.6806 27.7591 16.8249 25.8239 16.6342C23.8887 16.4436 21.9472 16.9299 20.3303 18.0103C18.7134 19.0907 17.5212 20.6982 16.9567 22.5591C16.3922 24.42 16.4904 26.419 17.2345 28.2156C17.9787 30.0122 19.3228 31.4951 21.0378 32.4118C22.7528 33.3285 24.7326 33.6222 26.6398 33.2428C28.547 32.8634 30.2637 31.8345 31.4974 30.3313C32.731 28.8281 33.4053 26.9436 33.4053 24.999C33.4067 23.895 33.19 22.8016 32.7675 21.7816C32.345 20.7617 31.7251 19.8353 30.9435 19.0556ZM21.9401 27.1951C21.9401 27.0576 21.9948 26.9258 22.092 26.8286C22.1892 26.7313 22.321 26.6767 22.4585 26.6767C22.596 26.6767 22.7278 26.7313 22.825 26.8286C22.9222 26.9258 22.9769 27.0576 22.9769 27.1951C22.9804 27.4176 23.0317 27.6367 23.1272 27.8376C23.2228 28.0385 23.3605 28.2166 23.5309 28.3596C24.3108 29.0451 25.6056 29.0451 26.3856 28.3596C26.5559 28.2166 26.6936 28.0385 26.7892 27.8376C26.8848 27.6367 26.936 27.4176 26.9396 27.1951C26.9396 25.9158 25.912 25.7025 24.8873 25.4901C23.4538 25.1928 22.0239 24.8964 22.0239 22.8029C22.0275 22.4328 22.1106 22.0679 22.2677 21.7328C22.4248 21.3977 22.6521 21.1003 22.9343 20.8608C23.3841 20.4712 23.9352 20.2172 24.5236 20.1284L24.5236 19.2649C24.5236 19.1274 24.5782 18.9956 24.6755 18.8984C24.7727 18.8012 24.9045 18.7466 25.042 18.7466C25.1795 18.7466 25.3113 18.8012 25.4085 18.8984C25.5057 18.9956 25.5604 19.1274 25.5604 19.2649L25.5604 20.1284C26.1488 20.2172 26.6999 20.4712 27.1497 20.8608C27.4319 21.1003 27.6592 21.3977 27.8163 21.7328C27.9733 22.0679 28.0565 22.4328 28.0601 22.8029C28.0601 22.9404 28.0054 23.0722 27.9082 23.1694C27.811 23.2667 27.6792 23.3213 27.5417 23.3213C27.4042 23.3213 27.2724 23.2667 27.1752 23.1694C27.078 23.0722 27.0233 22.9404 27.0233 22.8029C27.0198 22.5804 26.9685 22.3613 26.873 22.1604C26.7774 21.9595 26.6397 21.7814 26.4693 21.6384C25.6896 20.953 24.3945 20.953 23.6147 21.6384C23.4443 21.7814 23.3067 21.9594 23.2111 22.1602C23.1155 22.3611 23.0642 22.5801 23.0606 22.8025C23.0606 24.0557 24.0763 24.2663 25.0938 24.4773C26.5331 24.7758 27.9763 25.075 27.9763 27.1947C27.9727 27.5648 27.8896 27.9297 27.7325 28.2648C27.5754 28.5999 27.3481 28.8973 27.0659 29.1368C26.6381 29.5079 26.1179 29.7562 25.5604 29.8554L25.5604 30.7331C25.5604 30.8706 25.5057 31.0024 25.4085 31.0996C25.3113 31.1968 25.1795 31.2514 25.042 31.2514C24.9045 31.2514 24.7727 31.1968 24.6755 31.0996C24.5782 31.0024 24.5236 30.8706 24.5236 30.7331L24.5236 29.8816C23.9045 29.8044 23.3222 29.5452 22.8505 29.1368C22.5684 28.8974 22.3411 28.6 22.184 28.265C22.0269 27.93 21.9438 27.5651 21.9401 27.1951Z" fill="rgb(255,255,255)" fill-rule="evenodd" />
	</g>
</svg>
