<svg viewBox="0 0 59.5835 59.5834" xmlns="http://www.w3.org/2000/svg" xmlns:xlink="http://www.w3.org/1999/xlink" width="59.583496" height="59.583374" fill="none" customFrame="#000000">
	<path id="Vector" d="M16.25 32.5L16.25 56.875C16.25 57.5933 15.9647 58.2822 15.4567 58.7901C14.9488 59.298 14.26 59.5833 13.5417 59.5833L2.70833 59.5833C1.99004 59.5833 1.30116 59.298 0.793252 58.7901C0.285341 58.2822 6.01371e-16 57.5933 0 56.875L0 32.5C-3.00685e-16 31.7817 0.285341 31.0928 0.793252 30.5849C1.30116 30.077 1.99004 29.7917 2.70833 29.7917L13.5417 29.7917C14.26 29.7917 14.9488 30.077 15.4567 30.5849C15.9647 31.0928 16.25 31.7817 16.25 32.5ZM35.2083 0L24.375 0C23.6567 6.01371e-16 22.9678 0.285341 22.4599 0.793252C21.952 1.30116 21.6667 1.99004 21.6667 2.70833L21.6667 56.875C21.6667 57.5933 21.952 58.2822 22.4599 58.7901C22.9678 59.298 23.6567 59.5833 24.375 59.5833L35.2083 59.5833C35.9266 59.5833 36.6155 59.298 37.1234 58.7901C37.6313 58.2822 37.9167 57.5933 37.9167 56.875L37.9167 2.70833C37.9167 1.99004 37.6313 1.30116 37.1234 0.793252C36.6155 0.285341 35.9266 6.01371e-16 35.2083 0ZM56.875 13.5417L46.0417 13.5417C45.3234 13.5417 44.6345 13.827 44.1266 14.3349C43.6187 14.8428 43.3333 15.5317 43.3333 16.25L43.3333 56.875C43.3333 57.5933 43.6187 58.2822 44.1266 58.7901C44.6345 59.298 45.3234 59.5833 46.0417 59.5833L56.875 59.5833C57.5933 59.5833 58.2822 59.298 58.7901 58.7901C59.298 58.2822 59.5833 57.5933 59.5833 56.875L59.5833 16.25C59.5833 15.5317 59.298 14.8428 58.7901 14.3349C58.2822 13.827 57.5933 13.5417 56.875 13.5417Z" fill="rgb(28,94,32)" fill-rule="nonzero" />
</svg>
