<svg viewBox="0 0 65 61.75" xmlns="http://www.w3.org/2000/svg" xmlns:xlink="http://www.w3.org/1999/xlink" width="65.000000" height="61.750000" fill="none" customFrame="#000000">
	<path id="Vector" d="M32.5001 0C14.5796 0 8.73453e-05 13.1213 8.73453e-05 29.25C8.73453e-05 34.8877 1.78325 40.3488 5.16542 45.071C4.52517 52.1528 2.80917 57.4102 0.317504 59.9008C-0.0118293 60.2301 -0.0941627 60.7338 0.113837 61.1498C0.298004 61.5214 0.677171 61.75 1.08342 61.75C1.13325 61.75 1.18309 61.7468 1.234 61.7392C1.67275 61.6774 11.8648 60.2106 19.2368 55.9553C23.4228 57.6442 27.8818 58.5 32.5001 58.5C50.4206 58.5 65.0001 45.3787 65.0001 29.25C65.0001 13.1213 50.4206 0 32.5001 0ZM17.3334 33.5833C14.9436 33.5833 13.0001 31.6398 13.0001 29.25C13.0001 26.8602 14.9436 24.9167 17.3334 24.9167C19.7233 24.9167 21.6668 26.8602 21.6668 29.25C21.6668 31.6398 19.7233 33.5833 17.3334 33.5833ZM32.5001 33.5833C30.1103 33.5833 28.1668 31.6398 28.1668 29.25C28.1668 26.8602 30.1103 24.9167 32.5001 24.9167C34.8899 24.9167 36.8334 26.8602 36.8334 29.25C36.8334 31.6398 34.8899 33.5833 32.5001 33.5833ZM47.6667 33.5833C45.2769 33.5833 43.3334 31.6398 43.3334 29.25C43.3334 26.8602 45.2769 24.9167 47.6667 24.9167C50.0566 24.9167 52.0001 26.8602 52.0001 29.25C52.0001 31.6398 50.0566 33.5833 47.6667 33.5833Z" fill="rgb(28,94,32)" fill-rule="nonzero" />
</svg>
