<svg viewBox="0 0 65 65" xmlns="http://www.w3.org/2000/svg" xmlns:xlink="http://www.w3.org/1999/xlink" width="65.000000" height="65.000000" fill="none" customFrame="#000000">
	<g id="Group">
		<g id="Group">
			<path id="Vector" d="M32.5 65C50.4447 65 65 50.4447 65 32.5C65 14.5553 50.4447 0 32.5 0C14.5553 0 0 14.5553 0 32.5C0 50.4447 14.5553 65 32.5 65ZM30.1785 13.9286C30.1785 12.6518 31.2232 11.6071 32.5 11.6071C33.7768 11.6071 34.8215 12.6518 34.8215 13.9286L34.8215 31.3857L45.5581 39.975C46.5564 40.7759 46.7188 42.2383 45.9179 43.2366C45.4651 43.8053 44.792 44.1071 44.1071 44.1071C43.5964 44.1071 43.0856 43.9445 42.6563 43.5964L31.0492 34.3108C30.5037 33.8696 30.1787 33.2081 30.1787 32.5L30.1787 13.9286L30.1785 13.9286Z" fill="#1C5E20" fill-rule="nonzero" />
		</g>
	</g>
</svg>
