<svg viewBox="0 0 19.1992 19.2012" xmlns="http://www.w3.org/2000/svg" xmlns:xlink="http://www.w3.org/1999/xlink" width="19.199219" height="19.201172" fill="none" customFrame="#000000">
	<g id="Group 1577708415">
		<path id="Vector" d="M2.304 0C1.032 0 0 1.032 0 2.304C0 3.576 1.032 4.632 2.304 4.632C3.576 4.632 4.608 3.576 4.608 2.304C4.608 1.032 3.576 0 2.304 0Z" fill="rgb(255,255,255)" fill-rule="nonzero" />
		<path id="Vector" d="M19.199 19.2003L19.199 12.1683C19.199 8.71227 18.455 6.07227 14.423 6.07227C12.479 6.07227 11.183 7.12827 10.655 8.13627L10.607 8.13627L10.607 6.38427L6.79102 6.38427L6.79102 19.2003L10.775 19.2003L10.775 12.8403C10.775 11.1603 11.087 9.55227 13.151 9.55227C15.191 9.55227 15.215 11.4483 15.215 12.9363L15.215 19.1763L19.199 19.1763L19.199 19.2003Z" fill="rgb(255,255,255)" fill-rule="nonzero" />
		<path id="Vector" d="M0.3125 6.38477L4.2965 6.38477L4.2965 19.2008L0.3125 19.2008L0.3125 6.38477Z" fill="rgb(255,255,255)" fill-rule="nonzero" />
	</g>
</svg>
