<svg viewBox="0 0 44 44" xmlns="http://www.w3.org/2000/svg" xmlns:xlink="http://www.w3.org/1999/xlink" width="44.000000" height="44.000000" fill="none">
	<rect id="Bold / Video, Audio, Sound / Microphone" width="44.000000" height="44.000000" x="0.000000" y="0.000000" />
	<path id="Vector" d="M20.25 2C14.0802 2 9.07857 7.02315 9.07857 13.2195L9.07857 19.0732C9.07857 25.2695 14.0802 30.2927 20.25 30.2927C25.926 30.2927 30.6132 26.0415 31.3273 20.5366L22.1929 20.5366C21.3881 20.5366 20.7357 19.8814 20.7357 19.0732C20.7357 18.2649 21.3881 17.6098 22.1929 17.6098L31.4214 17.6098L31.4214 14.6829L22.1929 14.6829C21.3881 14.6829 20.7357 14.0277 20.7357 13.2195C20.7357 12.4113 21.3881 11.7561 22.1929 11.7561L31.3273 11.7561C30.6132 6.25119 25.926 2 20.25 2ZM6.16429 17.122C6.16429 16.3137 5.5119 15.6585 4.70714 15.6585C3.90238 15.6585 3.25 16.3137 3.25 17.122L3.25 19.0732C3.25 28.0095 10.0861 35.3422 18.7929 36.0845L18.7929 40.5366C18.7929 41.3448 19.4452 42 20.25 42C21.0548 42 21.7071 41.3448 21.7071 40.5366L21.7071 36.0845C30.4139 35.3422 37.25 28.0095 37.25 19.0732L37.25 17.122C37.25 16.3137 36.5976 15.6585 35.7929 15.6585C34.9881 15.6585 34.3357 16.3137 34.3357 17.122L34.3357 19.0732C34.3357 26.886 28.0293 33.2195 20.25 33.2195C12.4707 33.2195 6.16429 26.886 6.16429 19.0732L6.16429 17.122Z" fill="rgb(255,255,255)" fill-rule="evenodd" />
</svg>
