<svg viewBox="0 0 65 65" xmlns="http://www.w3.org/2000/svg" xmlns:xlink="http://www.w3.org/1999/xlink" width="65.000000" height="65.000000" fill="none" customFrame="#000000">
	<g id="Layer 2">
		<g id="arrow up">
			<path id="Vector" d="M32.5 0C14.5514 0 0 14.5514 0 32.5C0 50.4486 14.5514 65 32.5 65C50.4486 65 65 50.4486 65 32.5C65 14.5514 50.4486 0 32.5 0ZM43.5348 26.3364C43.3469 27.1756 42.8391 27.7329 41.9948 27.9652C41.096 28.2115 40.3368 27.9525 39.6995 27.3127C38.2522 25.8616 36.8177 24.3928 35.3755 22.9417C35.199 22.7652 35.0048 22.6065 34.7014 22.3323L34.7014 23.4013L34.7014 47.8943C34.7014 48.9976 34.2405 49.7453 33.3823 50.0894C31.8106 50.7178 30.3075 49.673 30.305 47.9223C30.2974 42.6867 30.305 28.5898 30.305 23.3556L30.305 22.3222C29.9774 22.623 29.7794 22.7906 29.5979 22.9747C28.1722 24.4131 26.7592 25.8629 25.3246 27.2911C24.3547 28.2572 22.9658 28.3131 22.0708 27.4536C21.1758 26.5941 21.1732 25.1481 22.1203 24.1935C25.0216 21.2634 27.9373 18.3473 30.8674 15.4451C31.8271 14.4955 33.1665 14.4828 34.1199 15.4261C37.0703 18.3426 40.0046 21.2752 42.9229 24.2239C43.2026 24.4904 43.4067 24.8264 43.5142 25.1975C43.6217 25.5686 43.6288 25.9617 43.5348 26.3364Z" fill="rgb(28,94,32)" fill-rule="nonzero" />
		</g>
	</g>
</svg>
