<svg viewBox="0 0 50 33.8674" xmlns="http://www.w3.org/2000/svg" xmlns:xlink="http://www.w3.org/1999/xlink"
    width="50.000000" height="33.867432" fill="none" customFrame="#000000">
    <g id="Group">
        <path id="Vector"
            d="M48.4307 0L32.5039 0C31.6377 0 30.9346 0.702148 30.9346 1.56934L30.9346 4.73926C30.9346 5.60547 31.6377 6.30859 32.5039 6.30859L39.2314 6.30859L25.4658 20.0732L19.6299 14.2373C18.3975 13.0059 16.4004 13.0059 15.168 14.2373L0.459961 28.9473C-0.15332 29.5596 -0.15332 30.5537 0.459961 31.166L2.70117 33.4082C3.31348 34.0205 4.30762 34.0205 4.91992 33.4082L17.3994 20.9287L23.2344 26.7647C24.4667 27.9974 26.4641 27.9979 27.6963 26.7647L43.6914 10.7695L43.6914 17.4971C43.6914 18.3633 44.3936 19.0664 45.2607 19.0664L48.4307 19.0664C49.2979 19.0664 50 18.3633 50 17.4971L50 1.56934C50 0.702148 49.2979 0 48.4307 0Z"
            fill="rgb(255,255,255)" fill-rule="nonzero" />
    </g>
</svg>