<svg viewBox="0 0 22.0137 15.4688" xmlns="http://www.w3.org/2000/svg" xmlns:xlink="http://www.w3.org/1999/xlink" width="22.013672" height="15.468750" fill="none" customFrame="#000000">
	<path id="Vector" d="M22.0088 5.45168C22.0583 4.02034 21.7452 2.5997 21.0988 1.32168C20.6602 0.797282 20.0515 0.443393 19.3788 0.321683C16.5963 0.0692085 13.8023 -0.0342726 11.0088 0.0116833C8.22546 -0.0363584 5.44152 0.0637835 2.66882 0.311683C2.12064 0.4114 1.61333 0.668525 1.20882 1.05168C0.308816 1.88168 0.208816 3.30168 0.108816 4.50168C-0.036272 6.65925 -0.036272 8.82412 0.108816 10.9817C0.137746 11.6571 0.23831 12.3275 0.408816 12.9817C0.529391 13.4867 0.773339 13.954 1.11882 14.3417C1.52608 14.7451 2.0452 15.0169 2.60882 15.1217C4.76473 15.3878 6.93703 15.4981 9.10882 15.4517C12.6088 15.5017 15.6788 15.4517 19.3088 15.1717C19.8863 15.0733 20.42 14.8012 20.8388 14.3917C21.1188 14.1116 21.3279 13.7688 21.4488 13.3917C21.8064 12.2943 21.9821 11.1458 21.9688 9.99168C22.0088 9.43168 22.0088 6.05168 22.0088 5.45168ZM8.74882 10.5917L8.74882 4.40168L14.6688 7.51168C13.0088 8.43168 10.8188 9.47168 8.74882 10.5917Z" fill="rgb(255,255,255)" fill-rule="nonzero" />
</svg>
